<?xml version="1.0" encoding="UTF-8" standalone="no"?>
<!-- Created with Inkscape (http://www.inkscape.org/) -->

<svg
   version="1.1"
   id="svg1"
   width="658.54376"
   height="635.99969"
   viewBox="0 0 658.54376 635.99967"
   xmlns="http://www.w3.org/2000/svg"
   xmlns:svg="http://www.w3.org/2000/svg">
  <defs
     id="defs1">
    <clipPath
       clipPathUnits="userSpaceOnUse"
       id="clipPath3">
      <path
         d="M 0,0 H 612.283 V 793.701 H 0 Z"
         transform="translate(-241.27831,-469.80851)"
         id="path3" />
    </clipPath>
    <clipPath
       clipPathUnits="userSpaceOnUse"
       id="clipPath5">
      <path
         d="M 0,0 H 612.283 V 793.701 H 0 Z"
         transform="translate(-241.27831,-465.47081)"
         id="path5" />
    </clipPath>
    <clipPath
       clipPathUnits="userSpaceOnUse"
       id="clipPath7">
      <path
         d="M 0,0 H 612.283 V 793.701 H 0 Z"
         transform="translate(-278.77851,-489.47141)"
         id="path7" />
    </clipPath>
    <clipPath
       clipPathUnits="userSpaceOnUse"
       id="clipPath62">
      <path
         d="M 0,0 H 612.283 V 793.701 H 0 Z"
         transform="translate(-213.84001,-73.783299)"
         id="path62" />
    </clipPath>
    <clipPath
       clipPathUnits="userSpaceOnUse"
       id="clipPath68">
      <path
         d="M 0,0 H 612.283 V 793.701 H 0 Z"
         transform="translate(-218.48331,-71.179899)"
         id="path68" />
    </clipPath>
    <clipPath
       clipPathUnits="userSpaceOnUse"
       id="clipPath108">
      <path
         d="M 0,0 H 612.283 V 793.701 H 0 Z"
         transform="translate(-272.40271,-60.625899)"
         id="path108" />
    </clipPath>
    <clipPath
       clipPathUnits="userSpaceOnUse"
       id="clipPath113">
      <path
         d="M 0,0 H 612.283 V 793.701 H 0 Z"
         transform="translate(-298.3519,-60.625899)"
         id="path113" />
    </clipPath>
    <clipPath
       clipPathUnits="userSpaceOnUse"
       id="clipPath120">
      <path
         d="M 0,0 H 612.283 V 793.701 H 0 Z"
         transform="translate(-325.24201,-62.058204)"
         id="path120" />
    </clipPath>
    <clipPath
       clipPathUnits="userSpaceOnUse"
       id="clipPath139">
      <path
         d="M 0,0 H 612.283 V 793.701 H 0 Z"
         transform="translate(-438.42631,-66.304202)"
         id="path139" />
    </clipPath>
    <clipPath
       clipPathUnits="userSpaceOnUse"
       id="clipPath145">
      <path
         d="M 0,0 H 612.283 V 793.701 H 0 Z"
         transform="translate(-460.55981,-65.909004)"
         id="path145" />
    </clipPath>
    <clipPath
       clipPathUnits="userSpaceOnUse"
       id="clipPath151">
      <path
         d="M 0,0 H 612.283 V 793.701 H 0 Z"
         transform="translate(-282.90541,-73.731204)"
         id="path151" />
    </clipPath>
    <clipPath
       clipPathUnits="userSpaceOnUse"
       id="clipPath155">
      <path
         d="M 0,0 H 612.283 V 793.701 H 0 Z"
         transform="translate(-310.25251,-74.415902)"
         id="path155" />
    </clipPath>
    <clipPath
       clipPathUnits="userSpaceOnUse"
       id="clipPath158">
      <path
         d="M 0,0 H 612.283 V 793.701 H 0 Z"
         transform="translate(-329.32891,-74.803502)"
         id="path158" />
    </clipPath>
    <clipPath
       clipPathUnits="userSpaceOnUse"
       id="clipPath161">
      <path
         d="M 0,0 H 612.283 V 793.701 H 0 Z"
         transform="translate(-351.56521,-73.872099)"
         id="path161" />
    </clipPath>
    <clipPath
       clipPathUnits="userSpaceOnUse"
       id="clipPath165">
      <path
         d="M 0,0 H 612.283 V 793.701 H 0 Z"
         transform="translate(-379.34551,-75.252204)"
         id="path165" />
    </clipPath>
    <clipPath
       clipPathUnits="userSpaceOnUse"
       id="clipPath168">
      <path
         d="M 0,0 H 612.283 V 793.701 H 0 Z"
         transform="translate(-390.61061,-75.131499)"
         id="path168" />
    </clipPath>
    <clipPath
       clipPathUnits="userSpaceOnUse"
       id="clipPath171">
      <path
         d="M 0,0 H 612.283 V 793.701 H 0 Z"
         transform="translate(-254.73441,-56.229099)"
         id="path171" />
    </clipPath>
    <clipPath
       clipPathUnits="userSpaceOnUse"
       id="clipPath208">
      <path
         d="M 0,0 H 612.283 V 793.701 H 0 Z"
         transform="translate(-135.4977,-86.9503)"
         id="path208" />
    </clipPath>
    <clipPath
       clipPathUnits="userSpaceOnUse"
       id="clipPath214">
      <path
         d="M 0,0 H 612.283 V 793.701 H 0 Z"
         transform="translate(-166.8549,-87.034502)"
         id="path214" />
    </clipPath>
    <clipPath
       clipPathUnits="userSpaceOnUse"
       id="clipPath217">
      <path
         d="M 0,0 H 612.283 V 793.701 H 0 Z"
         transform="translate(-177.6523,-83.389802)"
         id="path217" />
    </clipPath>
    <clipPath
       clipPathUnits="userSpaceOnUse"
       id="clipPath227">
      <path
         d="M 0,0 H 612.283 V 793.701 H 0 Z"
         transform="translate(-152.45151,-78.114602)"
         id="path227" />
    </clipPath>
    <clipPath
       clipPathUnits="userSpaceOnUse"
       id="clipPath231">
      <path
         d="M 0,0 H 612.283 V 793.701 H 0 Z"
         transform="translate(-109.49271,-69.278904)"
         id="path231" />
    </clipPath>
    <clipPath
       clipPathUnits="userSpaceOnUse"
       id="clipPath237">
      <path
         d="M 0,0 H 612.283 V 793.701 H 0 Z"
         transform="translate(-139.2036,-69.363204)"
         id="path237" />
    </clipPath>
    <clipPath
       clipPathUnits="userSpaceOnUse"
       id="clipPath244">
      <path
         d="M 0,0 H 612.283 V 793.701 H 0 Z"
         transform="translate(-111.96591,-60.527402)"
         id="path244" />
    </clipPath>
  </defs>
  <g
     id="g1"
     transform="translate(-92.25164,-253.13401)">
    <g
       id="g2">
      <path
         id="path2"
         d="m 0,0 c -28.563,-22.043 -46.959,-56.598 -46.959,-95.445 0,-66.568 54.016,-120.532 120.647,-120.532 66.632,0 120.648,53.964 120.648,120.532 0,66.568 -54.016,120.532 -120.648,120.532 -10.99,0 -21.638,-1.468 -31.756,-4.219"
         style="fill:none;stroke:#fbbc09;stroke-width:2.169;stroke-linecap:butt;stroke-linejoin:miter;stroke-miterlimit:10;stroke-dasharray:none;stroke-opacity:1"
         transform="matrix(1.3333333,0,0,-1.3333333,321.7044,431.85667)"
         clip-path="url(#clipPath3)" />
      <path
         id="path4"
         d="M 0,0 C 2.396,0 4.338,1.942 4.338,4.338 4.338,6.733 2.396,8.675 0,8.675 -2.396,8.675 -4.338,6.733 -4.338,4.338 -4.338,1.942 -2.396,0 0,0"
         style="fill:#fbbc09;fill-opacity:1;fill-rule:nonzero;stroke:none"
         transform="matrix(1.3333333,0,0,-1.3333333,321.7044,437.64027)"
         clip-path="url(#clipPath5)" />
      <path
         id="path6"
         d="M 0,0 7.929,-4.164 4.73,7.605 Z"
         style="fill:#fbbc09;fill-opacity:1;fill-rule:nonzero;stroke:none"
         transform="matrix(1.3333333,0,0,-1.3333333,371.70467,405.63947)"
         clip-path="url(#clipPath7)" />
    </g>
    <g
       id="g7">
      <path
         id="path8"
         d="m 0,0 c 37.694,29.253 61.971,75.11 61.971,126.665 0,88.342 -71.283,159.957 -159.215,159.957 -87.933,0 -159.216,-71.615 -159.216,-159.957 0,-88.342 71.283,-159.957 159.216,-159.957 14.504,0 28.555,1.948 41.907,5.599"
         style="fill:none;stroke:#ee1a97;stroke-width:2.169;stroke-linecap:butt;stroke-linejoin:miter;stroke-miterlimit:10;stroke-dasharray:none;stroke-opacity:1"
         transform="matrix(1.3333333,0,0,-1.3333333,549.63853,727.10773)" />
      <path
         id="path9"
         d="m 0,0 c -2.396,0 -4.338,-1.942 -4.338,-4.338 0,-2.395 1.942,-4.337 4.338,-4.337 2.396,0 4.338,1.942 4.338,4.337 C 4.338,-1.942 2.396,0 0,0"
         style="fill:#ee1a97;fill-opacity:1;fill-rule:nonzero;stroke:none"
         transform="matrix(1.3333333,0,0,-1.3333333,549.63853,721.32413)" />
      <path
         id="path10"
         d="M 0,0 -7.935,4.153 -4.719,-7.612 Z"
         style="fill:#ee1a97;fill-opacity:1;fill-rule:nonzero;stroke:none"
         transform="matrix(1.3333333,0,0,-1.3333333,481.7632,762.4176)" />
    </g>
    <g
       id="g10">
      <path
         id="path11"
         d="m 0,0 c -7.366,13.114 -17.457,24.486 -29.504,33.347 -17.396,12.795 -38.869,20.352 -62.105,20.352 -58.013,0 -105.042,-47.108 -105.042,-105.22 0,-58.111 47.029,-105.219 105.042,-105.219 58.013,0 105.041,47.108 105.041,105.219"
         style="fill:none;stroke:#66cef5;stroke-width:2.169;stroke-linecap:butt;stroke-linejoin:miter;stroke-miterlimit:10;stroke-dasharray:none;stroke-opacity:1"
         transform="matrix(1.3333333,0,0,-1.3333333,539.2484,489.52693)" />
      <path
         id="path12"
         d="M 0,0 C 2.396,0 4.338,1.942 4.338,4.338 4.338,6.733 2.396,8.675 0,8.675 -2.396,8.675 -4.338,6.733 -4.338,4.338 -4.338,1.942 -2.396,0 0,0"
         style="fill:#66cef5;fill-opacity:1;fill-rule:nonzero;stroke:none"
         transform="matrix(1.3333333,0,0,-1.3333333,539.2484,495.31053)" />
      <path
         id="path13"
         d="M 0,0 -6.098,-6.559 H 6.098 Z"
         style="fill:#66cef5;fill-opacity:1;fill-rule:nonzero;stroke:none"
         transform="matrix(1.3333333,0,0,-1.3333333,557.15827,552.09773)" />
    </g>
    <g
       id="g13">
      <path
         id="path14"
         d="m 0,0 c 10.217,-18.014 24.213,-33.636 40.922,-45.808 24.127,-17.577 53.912,-27.958 86.14,-27.958 80.464,0 145.692,64.713 145.692,144.54 0,79.827 -65.228,144.54 -145.692,144.54 -80.464,0 -145.693,-64.713 -145.693,-144.54"
         style="fill:none;stroke:#f47216;stroke-width:2.169;stroke-linecap:butt;stroke-linejoin:miter;stroke-miterlimit:10;stroke-dasharray:none;stroke-opacity:1"
         transform="matrix(1.3333333,0,0,-1.3333333,253.44053,651.55707)" />
      <path
         id="path15"
         d="m 0,0 c -2.396,0 -4.338,-1.942 -4.338,-4.338 0,-2.395 1.942,-4.337 4.338,-4.337 2.396,0 4.338,1.942 4.338,4.337 C 4.338,-1.942 2.396,0 0,0"
         style="fill:#f47216;fill-opacity:1;fill-rule:nonzero;stroke:none"
         transform="matrix(1.3333333,0,0,-1.3333333,253.44053,645.7736)" />
      <path
         id="path16"
         d="M 0,0 6.098,6.559 H -6.098 Z"
         style="fill:#f47216;fill-opacity:1;fill-rule:nonzero;stroke:none"
         transform="matrix(1.3333333,0,0,-1.3333333,228.5996,563.31533)" />
    </g>
    <g
       id="g16">
      <path
         id="path17"
         d="m 0,0 c 41.189,-27.819 97.107,-16.927 124.898,24.33 27.79,41.256 16.929,97.252 -24.26,125.071 -41.189,27.82 -97.107,16.927 -124.898,-24.329"
         style="fill:none;stroke:#f03932;stroke-width:2.169;stroke-linecap:butt;stroke-linejoin:miter;stroke-miterlimit:10;stroke-dasharray:none;stroke-opacity:1"
         transform="matrix(1.3333333,0,0,-1.3333333,353.81867,657.90947)" />
      <path
         id="path18"
         d="M 0,0 C 1.34,1.986 0.815,4.682 -1.17,6.022 -3.157,7.361 -5.853,6.837 -7.192,4.851 -8.532,2.865 -8.008,0.169 -6.022,-1.17 -4.036,-2.51 -1.34,-1.986 0,0"
         style="fill:#f03932;fill-opacity:1;fill-rule:nonzero;stroke:none"
         transform="matrix(1.3333333,0,0,-1.3333333,358.61347,661.1436)" />
      <path
         id="path19"
         d="M 0,0 8.722,2.033 -1.393,8.847 Z"
         style="fill:#f03932;fill-opacity:1;fill-rule:nonzero;stroke:none"
         transform="matrix(1.3333333,0,0,-1.3333333,318.05133,496.22573)" />
    </g>
    <g
       id="g19">
      <path
         id="path20"
         d="m 0,0 c 0,73.049 -58.895,132.267 -131.546,132.267 -72.651,0 -131.547,-59.218 -131.547,-132.267 0,-73.049 58.896,-132.267 131.547,-132.267"
         style="fill:none;stroke:#a61741;stroke-width:2.169;stroke-linecap:butt;stroke-linejoin:miter;stroke-miterlimit:10;stroke-dasharray:none;stroke-opacity:1"
         transform="matrix(1.3333333,0,0,-1.3333333,595.22,555.34413)" />
      <path
         id="path21"
         d="m 0,0 c -2.396,0 -4.338,-1.942 -4.338,-4.338 0,-2.395 1.942,-4.337 4.338,-4.337 2.396,0 4.338,1.942 4.338,4.337 C 4.338,-1.942 2.396,0 0,0"
         style="fill:#a61741;fill-opacity:1;fill-rule:nonzero;stroke:none"
         transform="matrix(1.3333333,0,0,-1.3333333,595.22,549.56067)" />
      <path
         id="path22"
         d="M 0,0 -6.559,6.098 V -6.098 Z"
         style="fill:#a61741;fill-opacity:1;fill-rule:nonzero;stroke:none"
         transform="matrix(1.3333333,0,0,-1.3333333,425.9484,731.7008)" />
    </g>
    <g
       id="g22">
      <path
         id="path23"
         d="m 0,0 c 38.266,4.612 67.919,37.113 67.919,76.521 0,42.571 -34.603,77.081 -77.288,77.081 -42.685,0 -77.288,-34.51 -77.288,-77.081 0,-34.636 22.906,-63.936 54.434,-73.656"
         style="fill:none;stroke:#d11d31;stroke-width:2.169;stroke-linecap:butt;stroke-linejoin:miter;stroke-miterlimit:10;stroke-dasharray:none;stroke-opacity:1"
         transform="matrix(1.3333333,0,0,-1.3333333,432.4712,660.47307)" />
      <path
         id="path24"
         d="m 0,0 c -2.396,0 -4.338,-1.942 -4.338,-4.338 0,-2.395 1.942,-4.337 4.338,-4.337 2.396,0 4.338,1.942 4.338,4.337 C 4.338,-1.942 2.396,0 0,0"
         style="fill:#d11d31;fill-opacity:1;fill-rule:nonzero;stroke:none"
         transform="matrix(1.3333333,0,0,-1.3333333,432.4712,654.68947)" />
      <path
         id="path25"
         d="M 0,0 -4.471,7.76 -8.065,-3.895 Z"
         style="fill:#d11d31;fill-opacity:1;fill-rule:nonzero;stroke:none"
         transform="matrix(1.3333333,0,0,-1.3333333,395.3584,658.4568)" />
    </g>
    <g
       id="g25">
      <path
         id="path26"
         d="m 0,0 c -32.636,-3.926 -57.925,-31.594 -57.925,-65.141 0,-36.241 29.511,-65.619 65.915,-65.619 36.404,0 65.915,29.378 65.915,65.619 0,29.485 -19.535,54.428 -46.423,62.702"
         style="fill:none;stroke:#33b540;stroke-width:2.169;stroke-linecap:butt;stroke-linejoin:miter;stroke-miterlimit:10;stroke-dasharray:none;stroke-opacity:1"
         transform="matrix(1.3333333,0,0,-1.3333333,409.3256,471.55547)" />
      <path
         id="path27"
         d="M 0,0 -7.241,5.271 -5.784,-6.838 Z"
         style="fill:#33b540;fill-opacity:1;fill-rule:nonzero;stroke:none"
         transform="matrix(1.3333333,0,0,-1.3333333,415.40533,470.82413)" />
      <path
         id="path28"
         d="M 0,0 C 2.396,0 4.338,1.942 4.338,4.338 4.338,6.733 2.396,8.675 0,8.675 -2.396,8.675 -4.338,6.733 -4.338,4.338 -4.338,1.942 -2.396,0 0,0"
         style="fill:#33b540;fill-opacity:1;fill-rule:nonzero;stroke:none"
         transform="matrix(1.3333333,0,0,-1.3333333,445.96813,480.59107)" />
    </g>
    <g
       id="g28">
      <path
         id="path29"
         d="m 0,0 c -6.055,-8.776 -9.599,-19.401 -9.599,-30.848 0,-30.152 24.583,-54.595 54.907,-54.595 30.324,0 54.906,24.443 54.906,54.595 0,30.152 -24.582,54.595 -54.906,54.595"
         style="fill:none;stroke:#d6a129;stroke-width:2.169;stroke-linecap:butt;stroke-linejoin:miter;stroke-miterlimit:10;stroke-dasharray:none;stroke-opacity:1"
         transform="matrix(1.3333333,0,0,-1.3333333,359.56893,520.10947)" />
      <path
         id="path30"
         d="M 0,0 C 2.396,0 4.338,1.942 4.338,4.338 4.338,6.733 2.396,8.675 0,8.675 -2.396,8.675 -4.338,6.733 -4.338,4.338 -4.338,1.942 -2.396,0 0,0"
         style="fill:#d6a129;fill-opacity:1;fill-rule:nonzero;stroke:none"
         transform="matrix(1.3333333,0,0,-1.3333333,359.56893,525.89307)" />
      <path
         id="path31"
         d="M 0,0 6.559,-6.098 V 6.098 Z"
         style="fill:#d6a129;fill-opacity:1;fill-rule:nonzero;stroke:none"
         transform="matrix(1.3333333,0,0,-1.3333333,413.85587,488.44707)" />
    </g>
    <g
       id="g31">
      <path
         id="path32"
         d="m 0,0 c 0.234,1.79 0.354,3.615 0.354,5.468 0,23.164 -18.836,41.942 -42.071,41.942 -23.236,0 -42.072,-18.778 -42.072,-41.942 0,-23.163 18.836,-41.942 42.072,-41.942"
         style="fill:none;stroke:#ee2722;stroke-width:2.169;stroke-linecap:butt;stroke-linejoin:miter;stroke-miterlimit:10;stroke-dasharray:none;stroke-opacity:1"
         transform="matrix(1.3333333,0,0,-1.3333333,474.27293,567.13413)" />
      <path
         id="path33"
         d="M 0,0 C 2.396,0 4.338,1.942 4.338,4.338 4.338,6.733 2.396,8.675 0,8.675 -2.396,8.675 -4.338,6.733 -4.338,4.338 -4.338,1.942 -2.396,0 0,0"
         style="fill:#ee2722;fill-opacity:1;fill-rule:nonzero;stroke:none"
         transform="matrix(1.3333333,0,0,-1.3333333,474.27293,572.9176)" />
      <path
         id="path34"
         d="M 0,0 -6.559,6.098 V -6.098 Z"
         style="fill:#ee2722;fill-opacity:1;fill-rule:nonzero;stroke:none"
         transform="matrix(1.3333333,0,0,-1.3333333,424.77307,615.7656)" />
    </g>
    <g
       id="g34">
      <path
         id="path35"
         d="m 0,0 c -47.531,-36.886 -78.143,-94.711 -78.143,-159.719 0,-111.395 89.885,-201.698 200.765,-201.698 110.879,0 200.764,90.303 200.764,201.698 0,111.396 -89.885,201.699 -200.764,201.699 -18.289,0 -36.007,-2.457 -52.845,-7.06"
         style="fill:none;stroke:#367b41;stroke-width:2.169;stroke-linecap:butt;stroke-linejoin:miter;stroke-miterlimit:10;stroke-dasharray:none;stroke-opacity:1"
         transform="matrix(1.3333333,0,0,-1.3333333,256.48387,345.26293)" />
      <path
         id="path36"
         d="M 0,0 C 2.396,0 4.338,1.942 4.338,4.338 4.338,6.733 2.396,8.675 0,8.675 -2.396,8.675 -4.338,6.733 -4.338,4.338 -4.338,1.942 -2.396,0 0,0"
         style="fill:#367b41;fill-opacity:1;fill-rule:nonzero;stroke:none"
         transform="matrix(1.3333333,0,0,-1.3333333,256.48387,351.04653)" />
      <path
         id="path37"
         d="M 0,0 7.935,-4.153 4.719,7.612 Z"
         style="fill:#367b41;fill-opacity:1;fill-rule:nonzero;stroke:none"
         transform="matrix(1.3333333,0,0,-1.3333333,343.6136,300.31747)" />
    </g>
    <g
       id="g37">
      <path
         id="path38"
         d="m 0,0 c 42.262,-54.458 108.513,-89.531 182.994,-89.531 127.629,0 231.093,102.985 231.093,230.023 0,127.038 -103.464,230.022 -231.093,230.022 -127.629,0 -231.092,-102.984 -231.092,-230.022 0,-20.955 2.815,-41.255 8.089,-60.546"
         style="fill:none;stroke:#80cc28;stroke-width:2.144;stroke-linecap:butt;stroke-linejoin:miter;stroke-miterlimit:10;stroke-dasharray:none;stroke-opacity:1"
         transform="matrix(1.3333333,0,0,-1.3333333,177.12987,748.582)" />
      <path
         id="path39"
         d="m 0,0 c 0,2.368 -1.919,4.287 -4.287,4.287 -2.368,0 -4.287,-1.919 -4.287,-4.287 0,-2.368 1.919,-4.287 4.287,-4.287 C -1.919,-4.287 0,-2.368 0,0"
         style="fill:#80cc28;fill-opacity:1;fill-rule:nonzero;stroke:none"
         transform="matrix(1.3333333,0,0,-1.3333333,182.846,748.582)" />
      <path
         id="path40"
         d="M 0,0 4.124,7.881 -7.56,4.686 Z"
         style="fill:#80cc28;fill-opacity:1;fill-rule:nonzero;stroke:none"
         transform="matrix(1.3333333,0,0,-1.3333333,125.39253,647.87)" />
    </g>
    <g
       id="g40">
      <path
         id="path41"
         d="m 0,0 c -13.078,23.079 -30.993,43.094 -52.381,58.688 -30.884,22.518 -69.009,35.818 -110.262,35.818 -102.996,0 -186.491,-82.907 -186.491,-185.179 0,-102.272 83.495,-185.179 186.491,-185.179 102.996,0 186.491,82.907 186.491,185.179"
         style="fill:none;stroke:#b7841c;stroke-width:2.169;stroke-linecap:butt;stroke-linejoin:miter;stroke-miterlimit:10;stroke-dasharray:none;stroke-opacity:1"
         transform="matrix(1.3333333,0,0,-1.3333333,633.9596,437.324)" />
      <path
         id="path42"
         d="M 0,0 C 2.396,0 4.338,1.942 4.338,4.338 4.338,6.733 2.396,8.675 0,8.675 -2.396,8.675 -4.338,6.733 -4.338,4.338 -4.338,1.942 -2.396,0 0,0"
         style="fill:#b7841c;fill-opacity:1;fill-rule:nonzero;stroke:none"
         transform="matrix(1.3333333,0,0,-1.3333333,633.9596,443.10747)" />
      <path
         id="path43"
         d="M 0,0 -6.098,-6.559 H 6.098 Z"
         style="fill:#b7841c;fill-opacity:1;fill-rule:nonzero;stroke:none"
         transform="matrix(1.3333333,0,0,-1.3333333,665.75667,552.09773)" />
    </g>
    <g
       id="g43">
      <path
         id="path44"
         d="m 0,0 c -26.623,-15.209 -49.711,-36.045 -67.7,-60.919 -25.976,-35.918 -41.319,-80.257 -41.319,-128.234 0,-119.784 95.639,-216.888 213.615,-216.888 117.977,0 213.616,97.104 213.616,216.888 0,119.784 -95.639,216.888 -213.616,216.888"
         style="fill:none;stroke:#00adef;stroke-width:2.169;stroke-linecap:butt;stroke-linejoin:miter;stroke-miterlimit:10;stroke-dasharray:none;stroke-opacity:1"
         transform="matrix(1.3333333,0,0,-1.3333333,279.488,309.0344)" />
      <path
         id="path45"
         d="M 0,0 -8.72,2.042 -2.67,-8.549 Z"
         style="fill:#00adef;fill-opacity:1;fill-rule:nonzero;stroke:none"
         transform="matrix(1.3333333,0,0,-1.3333333,284.80507,305.99707)" />
      <path
         id="path46"
         d="m 0,0 c 0,2.396 -1.942,4.338 -4.338,4.338 -2.395,0 -4.337,-1.942 -4.337,-4.338 0,-2.396 1.942,-4.338 4.337,-4.338 C -1.942,-4.338 0,-2.396 0,0"
         style="fill:#00adef;fill-opacity:1;fill-rule:nonzero;stroke:none"
         transform="matrix(1.3333333,0,0,-1.3333333,424.73347,272.05453)" />
    </g>
    <g
       id="g46">
      <path
         id="path47"
         d="m 0,0 c -28.036,-20.937 -51.208,-47.642 -67.974,-78.107 -24.209,-43.991 -35.058,-95.824 -27.901,-149.456 17.872,-133.902 141.224,-228.313 275.516,-210.873 134.291,17.44 228.669,140.126 210.798,274.028"
         style="fill:none;stroke:#1969bc;stroke-width:2.169;stroke-linecap:butt;stroke-linejoin:miter;stroke-miterlimit:10;stroke-dasharray:none;stroke-opacity:1"
         transform="matrix(1.3333333,0,0,-1.3333333,224.426,300.34013)" />
      <path
         id="path48"
         d="m 0,0 -8.904,0.961 7.298,-9.772 z"
         style="fill:#1969bc;fill-opacity:1;fill-rule:nonzero;stroke:none"
         transform="matrix(1.3333333,0,0,-1.3333333,229.33227,296.676)" />
      <path
         id="path49"
         d="M 0,0 C -0.313,2.375 -2.491,4.047 -4.867,3.734 -7.242,3.422 -8.914,1.243 -8.601,-1.132 -8.288,-3.507 -6.109,-5.179 -3.734,-4.867 -1.359,-4.554 0.313,-2.375 0,0"
         style="fill:#1969bc;fill-opacity:1;fill-rule:nonzero;stroke:none"
         transform="matrix(1.3333333,0,0,-1.3333333,750.7452,518.79533)" />
    </g>
    <g
       id="g49">
      <path
         id="path50"
         d="M 0,0 C 87.603,-37.209 188.481,3.023 225.318,89.86 262.154,176.697 221,277.257 133.397,314.466 45.794,351.675 -55.084,311.443 -91.921,224.606"
         style="fill:none;stroke:#f89c22;stroke-width:2.169;stroke-linecap:butt;stroke-linejoin:miter;stroke-miterlimit:10;stroke-dasharray:none;stroke-opacity:1"
         transform="matrix(1.3333333,0,0,-1.3333333,331.83067,767.43493)" />
      <path
         id="path51"
         d="M 0,0 3.653,-8.177 8.421,3.049 Z"
         style="fill:#f89c22;fill-opacity:1;fill-rule:nonzero;stroke:none"
         transform="matrix(1.3333333,0,0,-1.3333333,326.19453,765.04093)" />
      <path
         id="path52"
         d="M 0,0 C 0.936,2.205 -0.093,4.752 -2.298,5.688 -4.503,6.624 -7.05,5.595 -7.986,3.39 -8.922,1.185 -7.893,-1.362 -5.688,-2.298 -3.482,-3.234 -0.936,-2.205 0,0"
         style="fill:#f89c22;fill-opacity:1;fill-rule:nonzero;stroke:none"
         transform="matrix(1.3333333,0,0,-1.3333333,214.59347,470.22027)" />
    </g>
    <g
       id="g53" />
    <g
       id="g54" />
    <g
       id="g55" />
    <g
       id="g56" />
    <g
       id="g57" />
    <g
       id="g283" />
    <g
       id="g284" />
    <g
       id="g285" />
    <g
       id="g286" />
  </g>
</svg>
